<?xml version="1.0" encoding="UTF-8" standalone="no"?>
<!-- Created with Inkscape (http://www.inkscape.org/) -->

<svg
   width="96"
   height="50"
   viewBox="0 0 96 50"
   version="1.1"
   id="svg1"
   xml:space="preserve"
   inkscape:version="1.3 (0e150ed, 2023-07-21)"
   sodipodi:docname="logo.svg"
   xmlns:inkscape="http://www.inkscape.org/namespaces/inkscape"
   xmlns:sodipodi="http://sodipodi.sourceforge.net/DTD/sodipodi-0.dtd"
   xmlns="http://www.w3.org/2000/svg"
   xmlns:svg="http://www.w3.org/2000/svg"><sodipodi:namedview
     id="namedview1"
     pagecolor="#ffffff"
     bordercolor="#000000"
     borderopacity="0.25"
     inkscape:showpageshadow="2"
     inkscape:pageopacity="0.0"
     inkscape:pagecheckerboard="0"
     inkscape:deskcolor="#d1d1d1"
     inkscape:document-units="px"
     inkscape:zoom="3.4214207"
     inkscape:cx="61.231873"
     inkscape:cy="9.0605636"
     inkscape:window-width="1440"
     inkscape:window-height="847"
     inkscape:window-x="0"
     inkscape:window-y="25"
     inkscape:window-maximized="1"
     inkscape:current-layer="layer1" /><defs
     id="defs1" /><g
     inkscape:label="Layer 1"
     inkscape:groupmode="layer"
     id="layer1"><g
       id="g3"
       transform="translate(42.672331,0.87682876)"><path
         d="m 36.854399,42.445064 v 0.88 h 0.83 v 0.88 h 0.85 v 0.88 h 0.83 v 0.9 h -0.83 v 0.88 h -0.85 v 0.88 h -0.83 v 0.88 h -1.68 v -0.88 h 0.83 v -0.88 h 0.85 v -0.88 h 0.83 v -0.9 h -0.83 v -0.88 h -0.85 v -0.88 h -0.83 v -0.88 z"
         fill="#fc3232"
         id="svg_33"
         style="fill:#1e1e1e;fill-opacity:1" /><path
         d="m 34.174399,42.515064 h -1.47 v 0.85 h -0.83 v 0.88 h -0.78 v 0.83 h -0.83 v 0.88 h -0.78 v 0.85 h -0.83 v 0.88 h -0.78 v 0.85 h 1.47 v -0.85 h 0.78 v -0.85 h 0.83 v -0.88 h 0.78 v -0.85 h 0.83 v -0.85 h 0.78 v -0.85 h 0.83 v -0.88 z"
         fill="#fc3232"
         id="svg_32"
         style="fill:#1e1e1e;fill-opacity:1" /><path
         d="m 18.854399,48.605064 v -0.88 h -0.83 v -0.88 h -0.83 v -0.88 h -0.85 v -0.9 h 0.85 v -0.88 h 0.83 v -0.88 h 0.83 v -0.88 h 1.68 v 0.88 h -0.83 v 0.88 h -0.85 v 0.88 h -0.83 v 0.9 h 0.83 v 0.88 h 0.85 v 0.88 h 0.83 v 0.88 z"
         fill="#fc3232"
         id="svg_31"
         style="fill:#1e1e1e;fill-opacity:1" /><path
         d="m 40.134399,-0.454936 -76.35,15.02 -5.67,18.67 12.86,14.88 50.56,-9.94 2.82,10.72 12.86,-13.81 10.11,-1.99 5.67,-18.7 z"
         fill="#1e1e1e"
         fill-opacity="null"
         id="svg_30"
         stroke="null"
         stroke-dasharray="none"
         stroke-linecap="null"
         stroke-linejoin="null"
         stroke-opacity="null"
         stroke-width="null"
         style="fill:#1a40fb;fill-opacity:1" /><g
         id="g2"
         transform="matrix(0.85708397,-0.35998999,0.36108395,0.85968859,-69.910048,37.514692)"><path
           id="svg_6-7"
           style="fill:#ffffff;stroke-width:2.37256"
           d="m 41.923828,11.354046 v 1.777344 l -1.208984,0.01367 0.101562,10.414063 2.728516,-0.02734 6.453931,-0.0014 0.01103,-1.183191 1.102136,-0.02141 -0.02742,-5.454392 -1.278249,-0.0332 -0.0097,-4.380265 -1.435794,-0.0068 0.01009,-1.113636 z m 1.5,2.042969 4.122829,-3e-6 v 3.393268 l -4.122829,0.02861 z m 5.001953,4.965631 -0.01779,3.446683 -4.931436,-0.0041 -0.0332,-3.439453 z"
           sodipodi:nodetypes="cccccccccccccccccccccccc" /><path
           d="m 78.575669,23.703971 v -1.894286 h -7.752615 v -1.5269 h 1.70775 v -1.438612 h 1.70775 v -1.438617 h 1.707751 v -1.438612 h 1.70775 v -1.438612 h 0.921614 v -3.190843 l -11.327221,0.01979 v 1.770026 l 8.697857,0.01389 v 1.387137 h -1.707751 v 1.438612 h -1.70775 v 1.438612 h -1.70775 v 1.438617 h -1.745979 v 1.33914 h -1.828627 v 3.540366 z"
           fill="#ffffff"
           id="svg_2-7"
           style="stroke-width:2.37256"
           sodipodi:nodetypes="ccccccccccccccccccccccccccccc" /><path
           d="m 53.730311,23.563027 -0.0846,-8.683169 1.186225,-0.01156 -0.01687,-1.73189 1.731889,-0.01687 -0.01687,-1.731889 5.148217,-0.05016 0.01687,1.731889 1.731889,-0.01687 0.01687,1.731888 1.186225,-0.01156 0.0846,8.683169 -2.918114,0.02843 -0.03398,-3.487502 -5.148217,0.05016 0.03398,3.487503 z m 2.867263,-5.247821 5.148217,-0.05016 -0.03375,-3.463778 -1.708165,0.01664 -0.01687,-1.731889 -1.731888,0.01687 0.01687,1.731889 -1.708164,0.01664 z"
           fill="#ffffff"
           id="svg_3-6"
           style="stroke-width:2.37256" /><path
           id="svg_6-7-7"
           style="fill:#ffffff;stroke-width:2.37256"
           d="m 95.202705,11.354046 v 1.777344 l -1.208984,0.01367 0.101562,10.414063 2.728516,-0.02734 6.453931,-0.0014 0.011,-1.183191 1.10214,-0.02141 -0.0274,-5.454392 -1.27825,-0.0332 -0.01,-4.380265 -1.4358,-0.0068 0.0101,-1.113636 z m 1.5,2.042969 4.122835,-3e-6 v 3.393268 l -4.122835,0.02861 z m 5.001955,4.965631 -0.0178,3.446683 -4.931438,-0.0041 -0.0332,-3.439453 z"
           sodipodi:nodetypes="cccccccccccccccccccccccc" /><path
           d="m 107.00916,23.563027 -0.0846,-8.683169 1.18623,-0.01156 -0.0169,-1.73189 1.73188,-0.01687 -0.0169,-1.731889 5.14822,-0.05016 0.0169,1.731889 1.73189,-0.01687 0.0169,1.731888 1.18623,-0.01156 0.0846,8.683169 -2.91812,0.02843 -0.034,-3.487502 -5.14822,0.05016 0.034,3.487503 z m 2.86726,-5.247821 5.14822,-0.05016 -0.0338,-3.463778 -1.70816,0.01664 -0.0169,-1.731889 -1.73189,0.01687 0.0169,1.731889 -1.70817,0.01664 z"
           fill="#ffffff"
           id="svg_3-6-5"
           style="stroke-width:2.37256" /><path
           d="m 90.425224,12.907448 v -1.569959 h -8.144885 v 1.569959 h -1.170978 v 9.008167 h 1.170978 v 1.745307 h 8.144885 v -1.745307 h 1.034805 v -9.008167 z m -1.64597,8.571493 h -4.981967 v -7.980343 h 4.981967 z"
           fill="#ffffff"
           id="svg_6-2"
           style="stroke-width:2.37256"
           sodipodi:nodetypes="cccccccccccccccccc" /></g></g></g></svg>
